<mxfile host="app.diagrams.net" agent="Mozilla/5.0 (Windows NT 10.0; Win64; x64) AppleWebKit/537.36 (KHTML, like Gecko) Chrome/138.0.0.0 Safari/537.36" version="28.0.6">
  <diagram name="PÃ¡gina-1" id="6R_OjLi72vYt-dycN_tc">
    <mxGraphModel grid="1" page="1" gridSize="10" guides="1" tooltips="1" connect="1" arrows="1" fold="1" pageScale="1" pageWidth="827" pageHeight="1169" math="0" shadow="0">
      <root>
        <mxCell id="0" />
        <mxCell id="1" parent="0" />
        <mxCell id="gEGRzFlG713HXI_l5K5--1" style="edgeStyle=orthogonalEdgeStyle;rounded=1;orthogonalLoop=1;jettySize=auto;html=1;entryX=0;entryY=0.5;entryDx=0;entryDy=0;curved=0;endArrow=none;endFill=0;exitX=1;exitY=0.5;exitDx=0;exitDy=0;" edge="1" parent="1" source="gEGRzFlG713HXI_l5K5--14">
          <mxGeometry relative="1" as="geometry">
            <mxPoint x="827" y="360" as="targetPoint" />
          </mxGeometry>
        </mxCell>
        <mxCell id="gEGRzFlG713HXI_l5K5--2" value="" style="verticalLabelPosition=bottom;verticalAlign=top;html=1;shape=mxgraph.basic.rect;fillColor2=none;strokeWidth=1;size=20;indent=5;" vertex="1" parent="1">
          <mxGeometry x="220" y="160" width="480" height="400" as="geometry" />
        </mxCell>
        <mxCell id="gEGRzFlG713HXI_l5K5--3" value="&lt;span style=&quot;font-size: 12px; font-weight: 400; text-wrap-mode: wrap;&quot;&gt;&amp;lt;&amp;lt;structured&amp;gt;&amp;gt;&lt;/span&gt;&lt;div&gt;RecursosEventos&lt;/div&gt;" style="text;strokeColor=none;fillColor=none;html=1;fontSize=24;fontStyle=1;verticalAlign=middle;align=center;" vertex="1" parent="1">
          <mxGeometry x="375" y="175" width="170" height="40" as="geometry" />
        </mxCell>
        <mxCell id="gEGRzFlG713HXI_l5K5--4" value="&amp;lt;&amp;lt;part&amp;gt;&amp;gt;&lt;br&gt;&lt;span style=&quot;background-color: transparent; color: light-dark(rgb(0, 0, 0), rgb(255, 255, 255));&quot;&gt;Fecha: FechaAsignacion&lt;br&gt;&lt;/span&gt;" style="html=1;whiteSpace=wrap;" vertex="1" parent="1">
          <mxGeometry x="260" y="445" width="120" height="60" as="geometry" />
        </mxCell>
        <mxCell id="gEGRzFlG713HXI_l5K5--5" value="&amp;lt;&amp;lt;part&amp;gt;&amp;gt;&lt;div&gt;Estado: EstadoRecurso&lt;/div&gt;" style="html=1;whiteSpace=wrap;" vertex="1" parent="1">
          <mxGeometry x="530" y="265" width="140" height="50" as="geometry" />
        </mxCell>
        <mxCell id="gEGRzFlG713HXI_l5K5--6" value="&amp;lt;&amp;lt;part&amp;gt;&amp;gt;&lt;br&gt;Cantidad: Cantidad&lt;span style=&quot;color: rgba(0, 0, 0, 0); font-family: monospace; font-size: 0px; text-align: start; text-wrap-mode: nowrap;&quot;&gt;%3CmxGraphModel%3E%3Croot%3E%3CmxCell%20id%3D%220%22%2F%3E%3CmxCell%20id%3D%221%22%20parent%3D%220%22%2F%3E%3CmxCell%20id%3D%222%22%20value%3D%22Contrato%22%20style%3D%22html%3D1%3BwhiteSpace%3Dwrap%3B%22%20vertex%3D%221%22%20parent%3D%221%22%3E%3CmxGeometry%20x%3D%22130%22%20y%3D%22130%22%20width%3D%22110%22%20height%3D%2250%22%20as%3D%22geometry%22%2F%3E%3C%2FmxCell%3E%3C%2Froot%3E%3C%2FmxGraphModel%3E&lt;/span&gt;" style="html=1;whiteSpace=wrap;" vertex="1" parent="1">
          <mxGeometry x="255" y="265" width="120" height="50" as="geometry" />
        </mxCell>
        <mxCell id="gEGRzFlG713HXI_l5K5--7" value="" style="text;strokeColor=none;fillColor=none;align=left;verticalAlign=middle;spacingTop=-1;spacingLeft=4;spacingRight=4;rotatable=0;labelPosition=right;points=[];portConstraint=eastwest;" vertex="1" parent="1">
          <mxGeometry x="530" y="315" width="20" height="14" as="geometry" />
        </mxCell>
        <mxCell id="Fd6R7FNqwpOHMLECv13--4" style="edgeStyle=orthogonalEdgeStyle;rounded=0;orthogonalLoop=1;jettySize=auto;html=1;entryX=0.5;entryY=0;entryDx=0;entryDy=0;endArrow=none;endFill=0;" edge="1" parent="1" source="gEGRzFlG713HXI_l5K5--9" target="gEGRzFlG713HXI_l5K5--10">
          <mxGeometry relative="1" as="geometry" />
        </mxCell>
        <mxCell id="gEGRzFlG713HXI_l5K5--9" value="" style="rounded=0;whiteSpace=wrap;html=1;" vertex="1" parent="1">
          <mxGeometry x="300" y="315" width="30" height="30" as="geometry" />
        </mxCell>
        <mxCell id="gEGRzFlG713HXI_l5K5--10" value="" style="rounded=0;whiteSpace=wrap;html=1;" vertex="1" parent="1">
          <mxGeometry x="300" y="415" width="30" height="30" as="geometry" />
        </mxCell>
        <mxCell id="gEGRzFlG713HXI_l5K5--11" value="" style="rounded=0;whiteSpace=wrap;html=1;" vertex="1" parent="1">
          <mxGeometry x="504" y="275" width="30" height="30" as="geometry" />
        </mxCell>
        <mxCell id="Fd6R7FNqwpOHMLECv13--5" style="edgeStyle=orthogonalEdgeStyle;rounded=0;orthogonalLoop=1;jettySize=auto;html=1;entryX=0;entryY=0.5;entryDx=0;entryDy=0;endArrow=none;endFill=0;" edge="1" parent="1" source="gEGRzFlG713HXI_l5K5--13" target="gEGRzFlG713HXI_l5K5--11">
          <mxGeometry relative="1" as="geometry" />
        </mxCell>
        <mxCell id="gEGRzFlG713HXI_l5K5--13" value="" style="rounded=0;whiteSpace=wrap;html=1;" vertex="1" parent="1">
          <mxGeometry x="370" y="275" width="30" height="30" as="geometry" />
        </mxCell>
        <mxCell id="gEGRzFlG713HXI_l5K5--14" value="" style="rounded=0;whiteSpace=wrap;html=1;" vertex="1" parent="1">
          <mxGeometry x="680" y="345" width="30" height="30" as="geometry" />
        </mxCell>
        <mxCell id="gEGRzFlG713HXI_l5K5--15" value="&lt;font style=&quot;vertical-align: inherit;&quot;&gt;&lt;font style=&quot;vertical-align: inherit;&quot;&gt;&amp;lt;&amp;lt;port&amp;gt;&amp;gt;&lt;/font&gt;&lt;/font&gt;&lt;div&gt;interfazRecurso : Recurso&lt;/div&gt;" style="html=1;whiteSpace=wrap;" vertex="1" parent="1">
          <mxGeometry x="840" y="335" width="120" height="50" as="geometry" />
        </mxCell>
        <mxCell id="gEGRzFlG713HXI_l5K5--16" value="" style="rounded=0;whiteSpace=wrap;html=1;" vertex="1" parent="1">
          <mxGeometry x="820" y="345" width="30" height="30" as="geometry" />
        </mxCell>
        <mxCell id="gEGRzFlG713HXI_l5K5--17" value="&lt;font style=&quot;vertical-align: inherit;&quot;&gt;&lt;font style=&quot;vertical-align: inherit;&quot;&gt;&amp;lt;&amp;lt;port&amp;gt;&amp;gt;&lt;/font&gt;&lt;/font&gt;&lt;div&gt;interfazEvento&amp;nbsp; Evento&amp;nbsp;&amp;nbsp;&lt;/div&gt;" style="html=1;whiteSpace=wrap;" vertex="1" parent="1">
          <mxGeometry x="850" y="495" width="120" height="50" as="geometry" />
        </mxCell>
        <mxCell id="gEGRzFlG713HXI_l5K5--18" value="&lt;font style=&quot;vertical-align: inherit;&quot;&gt;&lt;font style=&quot;vertical-align: inherit;&quot;&gt;&amp;lt;&amp;lt;port&amp;gt;&amp;gt;&lt;/font&gt;&lt;/font&gt;&lt;div&gt;interfazAdmin : Admin&amp;nbsp; &amp;nbsp;&lt;/div&gt;" style="html=1;whiteSpace=wrap;" vertex="1" parent="1">
          <mxGeometry x="840" y="215" width="120" height="50" as="geometry" />
        </mxCell>
        <mxCell id="gEGRzFlG713HXI_l5K5--19" value="" style="rounded=0;whiteSpace=wrap;html=1;" vertex="1" parent="1">
          <mxGeometry x="680" y="225" width="30" height="30" as="geometry" />
        </mxCell>
        <mxCell id="gEGRzFlG713HXI_l5K5--20" value="" style="rounded=0;whiteSpace=wrap;html=1;" vertex="1" parent="1">
          <mxGeometry x="820" y="225" width="30" height="30" as="geometry" />
        </mxCell>
        <mxCell id="gEGRzFlG713HXI_l5K5--21" value="" style="rounded=0;whiteSpace=wrap;html=1;" vertex="1" parent="1">
          <mxGeometry x="690" y="505" width="30" height="30" as="geometry" />
        </mxCell>
        <mxCell id="gEGRzFlG713HXI_l5K5--22" value="" style="rounded=0;whiteSpace=wrap;html=1;" vertex="1" parent="1">
          <mxGeometry x="830" y="505" width="30" height="30" as="geometry" />
        </mxCell>
        <mxCell id="gEGRzFlG713HXI_l5K5--23" value="&lt;span style=&quot;font-weight: normal;&quot;&gt;&amp;lt;&amp;lt;note&amp;gt;&amp;gt;&lt;/span&gt;&lt;div&gt;&lt;span style=&quot;font-weight: 400;&quot;&gt;registrarAsignacion&lt;/span&gt;&lt;/div&gt;&lt;div&gt;&lt;span style=&quot;font-weight: 400;&quot;&gt;editarAsignacion&lt;/span&gt;&lt;/div&gt;" style="html=1;whiteSpace=wrap;fontStyle=1" vertex="1" parent="1">
          <mxGeometry x="1100" y="215" width="120" height="50" as="geometry" />
        </mxCell>
        <mxCell id="gEGRzFlG713HXI_l5K5--24" value="&amp;lt;&amp;lt;note&amp;gt;&amp;gt;&lt;div&gt;&amp;nbsp;obtenerDatosRecurso&lt;/div&gt;" style="html=1;whiteSpace=wrap;" vertex="1" parent="1">
          <mxGeometry x="1096" y="325" width="130" height="80" as="geometry" />
        </mxCell>
        <mxCell id="gEGRzFlG713HXI_l5K5--25" value="&amp;lt;&amp;lt;note&amp;gt;&amp;gt;&lt;div&gt;&amp;nbsp;&amp;nbsp;asignarRecurso&lt;/div&gt;&lt;div&gt;&amp;nbsp;liberarRecurso&lt;/div&gt;&lt;div&gt;&lt;br&gt;&lt;/div&gt;" style="html=1;whiteSpace=wrap;" vertex="1" parent="1">
          <mxGeometry x="1100" y="490" width="130" height="80" as="geometry" />
        </mxCell>
        <mxCell id="gEGRzFlG713HXI_l5K5--26" style="rounded=0;orthogonalLoop=1;jettySize=auto;html=1;exitX=1;exitY=0.5;exitDx=0;exitDy=0;endArrow=none;endFill=0;" edge="1" parent="1" source="gEGRzFlG713HXI_l5K5--27" target="gEGRzFlG713HXI_l5K5--32">
          <mxGeometry relative="1" as="geometry" />
        </mxCell>
        <mxCell id="gEGRzFlG713HXI_l5K5--27" value="" style="rounded=0;whiteSpace=wrap;html=1;" vertex="1" parent="1">
          <mxGeometry x="950" y="225" width="30" height="30" as="geometry" />
        </mxCell>
        <mxCell id="gEGRzFlG713HXI_l5K5--28" style="rounded=0;orthogonalLoop=1;jettySize=auto;html=1;entryX=0;entryY=0.5;entryDx=0;entryDy=0;endArrow=none;endFill=0;" edge="1" parent="1" source="gEGRzFlG713HXI_l5K5--29" target="gEGRzFlG713HXI_l5K5--33">
          <mxGeometry relative="1" as="geometry" />
        </mxCell>
        <mxCell id="gEGRzFlG713HXI_l5K5--29" value="" style="rounded=0;whiteSpace=wrap;html=1;" vertex="1" parent="1">
          <mxGeometry x="950" y="349" width="30" height="30" as="geometry" />
        </mxCell>
        <mxCell id="gEGRzFlG713HXI_l5K5--30" style="rounded=0;orthogonalLoop=1;jettySize=auto;html=1;entryX=0;entryY=0.5;entryDx=0;entryDy=0;endArrow=none;endFill=0;" edge="1" parent="1" source="gEGRzFlG713HXI_l5K5--31" target="gEGRzFlG713HXI_l5K5--34">
          <mxGeometry relative="1" as="geometry" />
        </mxCell>
        <mxCell id="gEGRzFlG713HXI_l5K5--31" value="" style="rounded=0;whiteSpace=wrap;html=1;" vertex="1" parent="1">
          <mxGeometry x="950" y="505" width="30" height="30" as="geometry" />
        </mxCell>
        <mxCell id="gEGRzFlG713HXI_l5K5--32" value="" style="rounded=0;whiteSpace=wrap;html=1;" vertex="1" parent="1">
          <mxGeometry x="1080" y="225" width="30" height="30" as="geometry" />
        </mxCell>
        <mxCell id="gEGRzFlG713HXI_l5K5--33" value="" style="rounded=0;whiteSpace=wrap;html=1;" vertex="1" parent="1">
          <mxGeometry x="1070" y="349" width="30" height="30" as="geometry" />
        </mxCell>
        <mxCell id="gEGRzFlG713HXI_l5K5--34" value="" style="rounded=0;whiteSpace=wrap;html=1;" vertex="1" parent="1">
          <mxGeometry x="1085" y="505" width="30" height="30" as="geometry" />
        </mxCell>
        <mxCell id="gEGRzFlG713HXI_l5K5--35" style="rounded=1;orthogonalLoop=1;jettySize=auto;html=1;entryX=0;entryY=0.5;entryDx=0;entryDy=0;endArrow=none;endFill=0;exitX=1;exitY=0.5;exitDx=0;exitDy=0;" edge="1" parent="1" source="gEGRzFlG713HXI_l5K5--21" target="gEGRzFlG713HXI_l5K5--22">
          <mxGeometry relative="1" as="geometry">
            <mxPoint x="860" y="529.5" as="targetPoint" />
            <mxPoint x="733" y="529.5" as="sourcePoint" />
          </mxGeometry>
        </mxCell>
        <mxCell id="gEGRzFlG713HXI_l5K5--36" style="rounded=1;orthogonalLoop=1;jettySize=auto;html=1;entryX=0;entryY=0.5;entryDx=0;entryDy=0;endArrow=none;endFill=0;" edge="1" parent="1" source="gEGRzFlG713HXI_l5K5--19" target="gEGRzFlG713HXI_l5K5--20">
          <mxGeometry relative="1" as="geometry">
            <mxPoint x="847" y="249.38" as="targetPoint" />
            <mxPoint x="720" y="249.38" as="sourcePoint" />
          </mxGeometry>
        </mxCell>
        <mxCell id="gEGRzFlG713HXI_l5K5--37" value="&lt;table&gt;&lt;tbody&gt;&lt;tr&gt;&lt;td data-start=&quot;2163&quot; data-end=&quot;2188&quot; data-col-size=&quot;sm&quot;&gt;&lt;/td&gt;&lt;/tr&gt;&lt;/tbody&gt;&lt;/table&gt;&lt;table&gt;&lt;tbody&gt;&lt;tr&gt;&lt;td data-start=&quot;2188&quot; data-end=&quot;2214&quot; data-col-size=&quot;sm&quot;&gt;1..*&lt;/td&gt;&lt;/tr&gt;&lt;/tbody&gt;&lt;/table&gt;" style="text;whiteSpace=wrap;html=1;" vertex="1" parent="1">
          <mxGeometry x="980" y="335" width="60" height="50" as="geometry" />
        </mxCell>
        <mxCell id="gEGRzFlG713HXI_l5K5--38" value="&lt;table&gt;&lt;tbody&gt;&lt;tr&gt;&lt;td data-start=&quot;2163&quot; data-end=&quot;2188&quot; data-col-size=&quot;sm&quot;&gt;&lt;/td&gt;&lt;/tr&gt;&lt;/tbody&gt;&lt;/table&gt;1.*" style="text;whiteSpace=wrap;html=1;" vertex="1" parent="1">
          <mxGeometry x="1050" y="335" width="30" height="40" as="geometry" />
        </mxCell>
        <mxCell id="gEGRzFlG713HXI_l5K5--39" value="&lt;table&gt;&lt;tbody&gt;&lt;tr&gt;&lt;td data-start=&quot;2163&quot; data-end=&quot;2188&quot; data-col-size=&quot;sm&quot;&gt;&lt;/td&gt;&lt;/tr&gt;&lt;/tbody&gt;&lt;/table&gt;&lt;table&gt;&lt;tbody&gt;&lt;tr&gt;&lt;td data-start=&quot;2188&quot; data-end=&quot;2214&quot; data-col-size=&quot;sm&quot;&gt;1..*&lt;/td&gt;&lt;/tr&gt;&lt;/tbody&gt;&lt;/table&gt;" style="text;whiteSpace=wrap;html=1;" vertex="1" parent="1">
          <mxGeometry x="980" y="485" width="60" height="50" as="geometry" />
        </mxCell>
        <mxCell id="gEGRzFlG713HXI_l5K5--40" value="&lt;table&gt;&lt;tbody&gt;&lt;tr&gt;&lt;td data-start=&quot;2163&quot; data-end=&quot;2188&quot; data-col-size=&quot;sm&quot;&gt;&lt;/td&gt;&lt;/tr&gt;&lt;/tbody&gt;&lt;/table&gt;1.*" style="text;whiteSpace=wrap;html=1;" vertex="1" parent="1">
          <mxGeometry x="1065" y="490" width="60" height="50" as="geometry" />
        </mxCell>
        <mxCell id="gEGRzFlG713HXI_l5K5--41" value="&lt;table&gt;&lt;tbody&gt;&lt;tr&gt;&lt;td data-start=&quot;2163&quot; data-end=&quot;2188&quot; data-col-size=&quot;sm&quot;&gt;&lt;/td&gt;&lt;/tr&gt;&lt;/tbody&gt;&lt;/table&gt;&lt;table&gt;&lt;tbody&gt;&lt;tr&gt;&lt;td data-start=&quot;2188&quot; data-end=&quot;2214&quot; data-col-size=&quot;sm&quot;&gt;1..*&lt;/td&gt;&lt;/tr&gt;&lt;/tbody&gt;&lt;/table&gt;" style="text;whiteSpace=wrap;html=1;" vertex="1" parent="1">
          <mxGeometry x="980" y="205" width="60" height="50" as="geometry" />
        </mxCell>
        <mxCell id="gEGRzFlG713HXI_l5K5--42" value="1.*" style="text;whiteSpace=wrap;html=1;" vertex="1" parent="1">
          <mxGeometry x="1055" y="215" width="60" height="50" as="geometry" />
        </mxCell>
        <mxCell id="gEGRzFlG713HXI_l5K5--43" value="1.*" style="text;whiteSpace=wrap;html=1;" vertex="1" parent="1">
          <mxGeometry x="712" y="205" width="60" height="50" as="geometry" />
        </mxCell>
        <mxCell id="gEGRzFlG713HXI_l5K5--44" value="&lt;table&gt;&lt;tbody&gt;&lt;tr&gt;&lt;td data-start=&quot;2163&quot; data-end=&quot;2188&quot; data-col-size=&quot;sm&quot;&gt;&lt;/td&gt;&lt;/tr&gt;&lt;/tbody&gt;&lt;/table&gt;&lt;table&gt;&lt;tbody&gt;&lt;tr&gt;&lt;td data-start=&quot;2188&quot; data-end=&quot;2214&quot; data-col-size=&quot;sm&quot;&gt;1..*&lt;/td&gt;&lt;/tr&gt;&lt;/tbody&gt;&lt;/table&gt;" style="text;whiteSpace=wrap;html=1;" vertex="1" parent="1">
          <mxGeometry x="790" y="205" width="60" height="50" as="geometry" />
        </mxCell>
        <mxCell id="gEGRzFlG713HXI_l5K5--45" value="1.*" style="text;whiteSpace=wrap;html=1;" vertex="1" parent="1">
          <mxGeometry x="710" y="325" width="60" height="50" as="geometry" />
        </mxCell>
        <mxCell id="gEGRzFlG713HXI_l5K5--46" value="&lt;table&gt;&lt;tbody&gt;&lt;tr&gt;&lt;td data-start=&quot;2163&quot; data-end=&quot;2188&quot; data-col-size=&quot;sm&quot;&gt;&lt;/td&gt;&lt;/tr&gt;&lt;/tbody&gt;&lt;/table&gt;&lt;table&gt;&lt;tbody&gt;&lt;tr&gt;&lt;td data-start=&quot;2188&quot; data-end=&quot;2214&quot; data-col-size=&quot;sm&quot;&gt;1..*&lt;/td&gt;&lt;/tr&gt;&lt;/tbody&gt;&lt;/table&gt;" style="text;whiteSpace=wrap;html=1;" vertex="1" parent="1">
          <mxGeometry x="790" y="329" width="60" height="50" as="geometry" />
        </mxCell>
        <mxCell id="gEGRzFlG713HXI_l5K5--47" value="1.*" style="text;whiteSpace=wrap;html=1;" vertex="1" parent="1">
          <mxGeometry x="720" y="490" width="60" height="50" as="geometry" />
        </mxCell>
        <mxCell id="gEGRzFlG713HXI_l5K5--48" value="&lt;table&gt;&lt;tbody&gt;&lt;tr&gt;&lt;td data-start=&quot;2163&quot; data-end=&quot;2188&quot; data-col-size=&quot;sm&quot;&gt;&lt;/td&gt;&lt;/tr&gt;&lt;/tbody&gt;&lt;/table&gt;&lt;table&gt;&lt;tbody&gt;&lt;tr&gt;&lt;td data-start=&quot;2188&quot; data-end=&quot;2214&quot; data-col-size=&quot;sm&quot;&gt;1..*&lt;/td&gt;&lt;/tr&gt;&lt;/tbody&gt;&lt;/table&gt;" style="text;whiteSpace=wrap;html=1;" vertex="1" parent="1">
          <mxGeometry x="800" y="485" width="60" height="50" as="geometry" />
        </mxCell>
        <mxCell id="Fd6R7FNqwpOHMLECv13--1" value="" style="rounded=0;whiteSpace=wrap;html=1;" vertex="1" parent="1">
          <mxGeometry x="375" y="460" width="30" height="30" as="geometry" />
        </mxCell>
        <mxCell id="Fd6R7FNqwpOHMLECv13--3" style="rounded=0;orthogonalLoop=1;jettySize=auto;html=1;entryX=1;entryY=0.5;entryDx=0;entryDy=0;endArrow=none;endFill=0;" edge="1" parent="1" source="Fd6R7FNqwpOHMLECv13--2" target="Fd6R7FNqwpOHMLECv13--1">
          <mxGeometry relative="1" as="geometry" />
        </mxCell>
        <mxCell id="Fd6R7FNqwpOHMLECv13--2" value="" style="rounded=0;whiteSpace=wrap;html=1;" vertex="1" parent="1">
          <mxGeometry x="585" y="307" width="30" height="30" as="geometry" />
        </mxCell>
        <mxCell id="gEGRzFlG713HXI_l5K5--54" value="&lt;table&gt;&lt;tbody&gt;&lt;tr&gt;&lt;td data-start=&quot;2163&quot; data-end=&quot;2188&quot; data-col-size=&quot;sm&quot;&gt;&lt;/td&gt;&lt;/tr&gt;&lt;/tbody&gt;&lt;/table&gt;1&lt;div&gt;&lt;br/&gt;&lt;/div&gt;" style="text;whiteSpace=wrap;html=1;" vertex="1" parent="1">
          <mxGeometry x="485" y="257" width="60" height="50" as="geometry" />
        </mxCell>
        <mxCell id="gEGRzFlG713HXI_l5K5--59" value="&lt;table&gt;&lt;tbody&gt;&lt;tr&gt;&lt;td data-start=&quot;2163&quot; data-end=&quot;2188&quot; data-col-size=&quot;sm&quot;&gt;&lt;/td&gt;&lt;/tr&gt;&lt;/tbody&gt;&lt;/table&gt;&lt;table&gt;&lt;tbody&gt;&lt;tr&gt;&lt;td data-start=&quot;2188&quot; data-end=&quot;2214&quot; data-col-size=&quot;sm&quot;&gt;1..*&lt;/td&gt;&lt;/tr&gt;&lt;/tbody&gt;&lt;/table&gt;" style="text;whiteSpace=wrap;html=1;" vertex="1" parent="1">
          <mxGeometry x="405" y="255" width="60" height="50" as="geometry" />
        </mxCell>
        <mxCell id="gEGRzFlG713HXI_l5K5--60" value="&lt;table&gt;&lt;tbody&gt;&lt;tr&gt;&lt;td data-start=&quot;2163&quot; data-end=&quot;2188&quot; data-col-size=&quot;sm&quot;&gt;&lt;/td&gt;&lt;/tr&gt;&lt;/tbody&gt;&lt;/table&gt;&lt;table&gt;&lt;tbody&gt;&lt;tr&gt;&lt;td data-start=&quot;2188&quot; data-end=&quot;2214&quot; data-col-size=&quot;sm&quot;&gt;1..*&lt;/td&gt;&lt;/tr&gt;&lt;/tbody&gt;&lt;/table&gt;" style="text;whiteSpace=wrap;html=1;" vertex="1" parent="1">
          <mxGeometry x="315" y="330" width="60" height="50" as="geometry" />
        </mxCell>
        <mxCell id="gEGRzFlG713HXI_l5K5--61" value="&lt;table&gt;&lt;tbody&gt;&lt;tr&gt;&lt;td data-start=&quot;2163&quot; data-end=&quot;2188&quot; data-col-size=&quot;sm&quot;&gt;&lt;/td&gt;&lt;/tr&gt;&lt;/tbody&gt;&lt;/table&gt;&lt;table&gt;&lt;tbody&gt;&lt;tr&gt;&lt;td data-start=&quot;2188&quot; data-end=&quot;2214&quot; data-col-size=&quot;sm&quot;&gt;1..*&lt;/td&gt;&lt;/tr&gt;&lt;/tbody&gt;&lt;/table&gt;" style="text;whiteSpace=wrap;html=1;" vertex="1" parent="1">
          <mxGeometry x="310" y="385" width="60" height="50" as="geometry" />
        </mxCell>
        <mxCell id="gEGRzFlG713HXI_l5K5--62" value="&lt;table&gt;&lt;tbody&gt;&lt;tr&gt;&lt;td data-start=&quot;2163&quot; data-end=&quot;2188&quot; data-col-size=&quot;sm&quot;&gt;&lt;/td&gt;&lt;/tr&gt;&lt;/tbody&gt;&lt;/table&gt;1" style="text;whiteSpace=wrap;html=1;" vertex="1" parent="1">
          <mxGeometry x="580" y="330" width="60" height="50" as="geometry" />
        </mxCell>
        <mxCell id="gEGRzFlG713HXI_l5K5--63" value="&lt;table&gt;&lt;tbody&gt;&lt;tr&gt;&lt;td data-start=&quot;2163&quot; data-end=&quot;2188&quot; data-col-size=&quot;sm&quot;&gt;&lt;/td&gt;&lt;/tr&gt;&lt;/tbody&gt;&lt;/table&gt;&lt;table&gt;&lt;tbody&gt;&lt;tr&gt;&lt;td data-start=&quot;2188&quot; data-end=&quot;2214&quot; data-col-size=&quot;sm&quot;&gt;1..*&lt;/td&gt;&lt;/tr&gt;&lt;/tbody&gt;&lt;/table&gt;" style="text;whiteSpace=wrap;html=1;" vertex="1" parent="1">
          <mxGeometry x="405" y="455" width="60" height="50" as="geometry" />
        </mxCell>
      </root>
    </mxGraphModel>
  </diagram>
</mxfile>
